<mxfile host="app.diagrams.net" modified="2023-06-08T15:58:45.868Z" agent="Mozilla/5.0 (Windows NT 10.0; Win64; x64) AppleWebKit/537.36 (KHTML, like Gecko) Chrome/113.0.0.0 Safari/537.36 OPR/99.0.0.0" etag="okW6QAVfyR_IpanYzJjh" version="21.3.7" type="github">
  <diagram name="Pagina-1" id="22FDroZKs7HGLO0olrjI">
    <mxGraphModel dx="1050" dy="542" grid="1" gridSize="10" guides="1" tooltips="1" connect="1" arrows="1" fold="1" page="1" pageScale="1" pageWidth="827" pageHeight="1169" math="0" shadow="0">
      <root>
        <mxCell id="0" />
        <mxCell id="1" parent="0" />
        <mxCell id="GFrlo3oG05gnsfdkdnTY-2" value="" style="rounded=0;whiteSpace=wrap;html=1;fillColor=none;fontColor=#FFFFFF;" vertex="1" parent="1">
          <mxGeometry x="30" y="120" width="780" height="430" as="geometry" />
        </mxCell>
        <mxCell id="GFrlo3oG05gnsfdkdnTY-3" value="Broker" style="rounded=0;whiteSpace=wrap;html=1;fillColor=none;fontStyle=1" vertex="1" parent="1">
          <mxGeometry x="30" y="90" width="80" height="30" as="geometry" />
        </mxCell>
        <mxCell id="GFrlo3oG05gnsfdkdnTY-4" value="&amp;lt;&amp;lt;SingleTon&amp;gt;&amp;gt;&lt;br&gt;GestoreSessione" style="swimlane;fontStyle=1;align=center;verticalAlign=top;childLayout=stackLayout;horizontal=1;startSize=40;horizontalStack=0;resizeParent=1;resizeParentMax=0;resizeLast=0;collapsible=1;marginBottom=0;whiteSpace=wrap;html=1;" vertex="1" parent="1">
          <mxGeometry x="80" y="160" width="180" height="150" as="geometry">
            <mxRectangle x="110" y="170" width="140" height="40" as="alternateBounds" />
          </mxGeometry>
        </mxCell>
        <mxCell id="GFrlo3oG05gnsfdkdnTY-5" value="&lt;br&gt;" style="text;strokeColor=none;fillColor=none;align=left;verticalAlign=top;spacingLeft=4;spacingRight=4;overflow=hidden;rotatable=0;points=[[0,0.5],[1,0.5]];portConstraint=eastwest;whiteSpace=wrap;html=1;" vertex="1" parent="GFrlo3oG05gnsfdkdnTY-4">
          <mxGeometry y="40" width="180" height="30" as="geometry" />
        </mxCell>
        <mxCell id="GFrlo3oG05gnsfdkdnTY-6" value="" style="line;strokeWidth=1;fillColor=none;align=left;verticalAlign=middle;spacingTop=-1;spacingLeft=3;spacingRight=3;rotatable=0;labelPosition=right;points=[];portConstraint=eastwest;strokeColor=inherit;" vertex="1" parent="GFrlo3oG05gnsfdkdnTY-4">
          <mxGeometry y="70" width="180" height="8" as="geometry" />
        </mxCell>
        <mxCell id="GFrlo3oG05gnsfdkdnTY-7" value="+creaSessione(sessione: Sessione): String&lt;br&gt;+verificaSessione(idSessione: String): Sessione" style="text;strokeColor=none;fillColor=none;align=left;verticalAlign=top;spacingLeft=4;spacingRight=4;overflow=hidden;rotatable=0;points=[[0,0.5],[1,0.5]];portConstraint=eastwest;whiteSpace=wrap;html=1;" vertex="1" parent="GFrlo3oG05gnsfdkdnTY-4">
          <mxGeometry y="78" width="180" height="72" as="geometry" />
        </mxCell>
        <mxCell id="GFrlo3oG05gnsfdkdnTY-9" value="SessioneAttiva" style="swimlane;fontStyle=1;align=center;verticalAlign=top;childLayout=stackLayout;horizontal=1;startSize=40;horizontalStack=0;resizeParent=1;resizeParentMax=0;resizeLast=0;collapsible=1;marginBottom=0;whiteSpace=wrap;html=1;" vertex="1" parent="1">
          <mxGeometry x="340" y="160" width="180" height="110" as="geometry">
            <mxRectangle x="110" y="170" width="140" height="40" as="alternateBounds" />
          </mxGeometry>
        </mxCell>
        <mxCell id="GFrlo3oG05gnsfdkdnTY-10" value="-chiave: String" style="text;strokeColor=none;fillColor=none;align=left;verticalAlign=top;spacingLeft=4;spacingRight=4;overflow=hidden;rotatable=0;points=[[0,0.5],[1,0.5]];portConstraint=eastwest;whiteSpace=wrap;html=1;" vertex="1" parent="GFrlo3oG05gnsfdkdnTY-9">
          <mxGeometry y="40" width="180" height="30" as="geometry" />
        </mxCell>
        <mxCell id="GFrlo3oG05gnsfdkdnTY-11" value="" style="line;strokeWidth=1;fillColor=none;align=left;verticalAlign=middle;spacingTop=-1;spacingLeft=3;spacingRight=3;rotatable=0;labelPosition=right;points=[];portConstraint=eastwest;strokeColor=inherit;" vertex="1" parent="GFrlo3oG05gnsfdkdnTY-9">
          <mxGeometry y="70" width="180" height="8" as="geometry" />
        </mxCell>
        <mxCell id="GFrlo3oG05gnsfdkdnTY-12" value="&lt;br&gt;" style="text;strokeColor=none;fillColor=none;align=left;verticalAlign=top;spacingLeft=4;spacingRight=4;overflow=hidden;rotatable=0;points=[[0,0.5],[1,0.5]];portConstraint=eastwest;whiteSpace=wrap;html=1;" vertex="1" parent="GFrlo3oG05gnsfdkdnTY-9">
          <mxGeometry y="78" width="180" height="32" as="geometry" />
        </mxCell>
        <mxCell id="GFrlo3oG05gnsfdkdnTY-15" value="1" style="endArrow=none;html=1;endSize=12;startArrow=diamondThin;startSize=14;startFill=1;edgeStyle=orthogonalEdgeStyle;align=left;verticalAlign=bottom;rounded=0;fontColor=#FFFFFF;endFill=0;entryX=0;entryY=0.5;entryDx=0;entryDy=0;exitX=1;exitY=0.5;exitDx=0;exitDy=0;" edge="1" parent="1" source="GFrlo3oG05gnsfdkdnTY-5" target="GFrlo3oG05gnsfdkdnTY-10">
          <mxGeometry x="-1" y="3" relative="1" as="geometry">
            <mxPoint x="254" y="214.5" as="sourcePoint" />
            <mxPoint x="414" y="214.5" as="targetPoint" />
          </mxGeometry>
        </mxCell>
        <mxCell id="GFrlo3oG05gnsfdkdnTY-16" value="Sessione" style="swimlane;fontStyle=1;align=center;verticalAlign=top;childLayout=stackLayout;horizontal=1;startSize=40;horizontalStack=0;resizeParent=1;resizeParentMax=0;resizeLast=0;collapsible=1;marginBottom=0;whiteSpace=wrap;html=1;" vertex="1" parent="1">
          <mxGeometry x="590" y="160" width="180" height="140" as="geometry">
            <mxRectangle x="110" y="170" width="140" height="40" as="alternateBounds" />
          </mxGeometry>
        </mxCell>
        <mxCell id="GFrlo3oG05gnsfdkdnTY-17" value="-ruolo: String&lt;br&gt;-dataCreazione: Date&lt;br&gt;-dataScadenza: Date&lt;br&gt;-ipClient: String" style="text;strokeColor=none;fillColor=none;align=left;verticalAlign=top;spacingLeft=4;spacingRight=4;overflow=hidden;rotatable=0;points=[[0,0.5],[1,0.5]];portConstraint=eastwest;whiteSpace=wrap;html=1;" vertex="1" parent="GFrlo3oG05gnsfdkdnTY-16">
          <mxGeometry y="40" width="180" height="70" as="geometry" />
        </mxCell>
        <mxCell id="GFrlo3oG05gnsfdkdnTY-18" value="" style="line;strokeWidth=1;fillColor=none;align=left;verticalAlign=middle;spacingTop=-1;spacingLeft=3;spacingRight=3;rotatable=0;labelPosition=right;points=[];portConstraint=eastwest;strokeColor=inherit;" vertex="1" parent="GFrlo3oG05gnsfdkdnTY-16">
          <mxGeometry y="110" width="180" height="8" as="geometry" />
        </mxCell>
        <mxCell id="GFrlo3oG05gnsfdkdnTY-19" value="&lt;br&gt;" style="text;strokeColor=none;fillColor=none;align=left;verticalAlign=top;spacingLeft=4;spacingRight=4;overflow=hidden;rotatable=0;points=[[0,0.5],[1,0.5]];portConstraint=eastwest;whiteSpace=wrap;html=1;" vertex="1" parent="GFrlo3oG05gnsfdkdnTY-16">
          <mxGeometry y="118" width="180" height="22" as="geometry" />
        </mxCell>
        <mxCell id="GFrlo3oG05gnsfdkdnTY-20" value="" style="endArrow=open;html=1;rounded=0;endFill=0;entryX=0.009;entryY=0.223;entryDx=0;entryDy=0;exitX=1;exitY=0.5;exitDx=0;exitDy=0;entryPerimeter=0;" edge="1" parent="1" source="GFrlo3oG05gnsfdkdnTY-10" target="GFrlo3oG05gnsfdkdnTY-17">
          <mxGeometry width="50" height="50" relative="1" as="geometry">
            <mxPoint x="390" y="390" as="sourcePoint" />
            <mxPoint x="440" y="340" as="targetPoint" />
          </mxGeometry>
        </mxCell>
        <mxCell id="GFrlo3oG05gnsfdkdnTY-21" value="1" style="text;html=1;strokeColor=none;fillColor=none;align=center;verticalAlign=middle;whiteSpace=wrap;rounded=0;" vertex="1" parent="1">
          <mxGeometry x="550" y="190" width="60" height="30" as="geometry" />
        </mxCell>
        <mxCell id="GFrlo3oG05gnsfdkdnTY-22" value="1" style="text;html=1;strokeColor=none;fillColor=none;align=center;verticalAlign=middle;whiteSpace=wrap;rounded=0;" vertex="1" parent="1">
          <mxGeometry x="490" y="190" width="60" height="30" as="geometry" />
        </mxCell>
        <mxCell id="GFrlo3oG05gnsfdkdnTY-31" value="FiltroRichieste" style="swimlane;fontStyle=1;align=center;verticalAlign=top;childLayout=stackLayout;horizontal=1;startSize=40;horizontalStack=0;resizeParent=1;resizeParentMax=0;resizeLast=0;collapsible=1;marginBottom=0;whiteSpace=wrap;html=1;" vertex="1" parent="1">
          <mxGeometry x="80" y="380" width="180" height="120" as="geometry">
            <mxRectangle x="110" y="170" width="140" height="40" as="alternateBounds" />
          </mxGeometry>
        </mxCell>
        <mxCell id="GFrlo3oG05gnsfdkdnTY-32" value="&lt;br&gt;" style="text;strokeColor=none;fillColor=none;align=left;verticalAlign=top;spacingLeft=4;spacingRight=4;overflow=hidden;rotatable=0;points=[[0,0.5],[1,0.5]];portConstraint=eastwest;whiteSpace=wrap;html=1;" vertex="1" parent="GFrlo3oG05gnsfdkdnTY-31">
          <mxGeometry y="40" width="180" height="30" as="geometry" />
        </mxCell>
        <mxCell id="GFrlo3oG05gnsfdkdnTY-33" value="" style="line;strokeWidth=1;fillColor=none;align=left;verticalAlign=middle;spacingTop=-1;spacingLeft=3;spacingRight=3;rotatable=0;labelPosition=right;points=[];portConstraint=eastwest;strokeColor=inherit;" vertex="1" parent="GFrlo3oG05gnsfdkdnTY-31">
          <mxGeometry y="70" width="180" height="8" as="geometry" />
        </mxCell>
        <mxCell id="GFrlo3oG05gnsfdkdnTY-34" value="+gestisciRichiesta(richiesta: Richiesta): Richiesta" style="text;strokeColor=none;fillColor=none;align=left;verticalAlign=top;spacingLeft=4;spacingRight=4;overflow=hidden;rotatable=0;points=[[0,0.5],[1,0.5]];portConstraint=eastwest;whiteSpace=wrap;html=1;" vertex="1" parent="GFrlo3oG05gnsfdkdnTY-31">
          <mxGeometry y="78" width="180" height="42" as="geometry" />
        </mxCell>
        <mxCell id="GFrlo3oG05gnsfdkdnTY-35" value="Richiesta" style="swimlane;fontStyle=1;align=center;verticalAlign=top;childLayout=stackLayout;horizontal=1;startSize=40;horizontalStack=0;resizeParent=1;resizeParentMax=0;resizeLast=0;collapsible=1;marginBottom=0;whiteSpace=wrap;html=1;" vertex="1" parent="1">
          <mxGeometry x="360" y="360" width="180" height="140" as="geometry">
            <mxRectangle x="110" y="170" width="140" height="40" as="alternateBounds" />
          </mxGeometry>
        </mxCell>
        <mxCell id="GFrlo3oG05gnsfdkdnTY-36" value="-destinatario: String&lt;br&gt;-mittente: String&lt;br&gt;-servizio: String&lt;br&gt;-parametri: Array(Object)" style="text;strokeColor=none;fillColor=none;align=left;verticalAlign=top;spacingLeft=4;spacingRight=4;overflow=hidden;rotatable=0;points=[[0,0.5],[1,0.5]];portConstraint=eastwest;whiteSpace=wrap;html=1;" vertex="1" parent="GFrlo3oG05gnsfdkdnTY-35">
          <mxGeometry y="40" width="180" height="70" as="geometry" />
        </mxCell>
        <mxCell id="GFrlo3oG05gnsfdkdnTY-37" value="" style="line;strokeWidth=1;fillColor=none;align=left;verticalAlign=middle;spacingTop=-1;spacingLeft=3;spacingRight=3;rotatable=0;labelPosition=right;points=[];portConstraint=eastwest;strokeColor=inherit;" vertex="1" parent="GFrlo3oG05gnsfdkdnTY-35">
          <mxGeometry y="110" width="180" height="8" as="geometry" />
        </mxCell>
        <mxCell id="GFrlo3oG05gnsfdkdnTY-38" value="&lt;br&gt;" style="text;strokeColor=none;fillColor=none;align=left;verticalAlign=top;spacingLeft=4;spacingRight=4;overflow=hidden;rotatable=0;points=[[0,0.5],[1,0.5]];portConstraint=eastwest;whiteSpace=wrap;html=1;" vertex="1" parent="GFrlo3oG05gnsfdkdnTY-35">
          <mxGeometry y="118" width="180" height="22" as="geometry" />
        </mxCell>
        <mxCell id="GFrlo3oG05gnsfdkdnTY-39" value="" style="endArrow=open;html=1;rounded=0;exitX=0.5;exitY=0;exitDx=0;exitDy=0;endFill=0;" edge="1" parent="1" source="GFrlo3oG05gnsfdkdnTY-31">
          <mxGeometry width="50" height="50" relative="1" as="geometry">
            <mxPoint x="145" y="370" as="sourcePoint" />
            <mxPoint x="170" y="310" as="targetPoint" />
          </mxGeometry>
        </mxCell>
        <mxCell id="GFrlo3oG05gnsfdkdnTY-40" value="" style="endArrow=open;dashed=1;html=1;rounded=0;endFill=0;entryX=0;entryY=0.5;entryDx=0;entryDy=0;exitX=1;exitY=0.5;exitDx=0;exitDy=0;" edge="1" parent="1" source="GFrlo3oG05gnsfdkdnTY-32" target="GFrlo3oG05gnsfdkdnTY-36">
          <mxGeometry width="50" height="50" relative="1" as="geometry">
            <mxPoint x="270" y="450" as="sourcePoint" />
            <mxPoint x="320" y="400" as="targetPoint" />
          </mxGeometry>
        </mxCell>
        <mxCell id="GFrlo3oG05gnsfdkdnTY-41" value="" style="endArrow=open;html=1;rounded=0;entryX=0.511;entryY=1.091;entryDx=0;entryDy=0;entryPerimeter=0;exitX=1;exitY=0.5;exitDx=0;exitDy=0;endFill=0;" edge="1" parent="1" source="GFrlo3oG05gnsfdkdnTY-36" target="GFrlo3oG05gnsfdkdnTY-19">
          <mxGeometry width="50" height="50" relative="1" as="geometry">
            <mxPoint x="390" y="390" as="sourcePoint" />
            <mxPoint x="440" y="340" as="targetPoint" />
            <Array as="points">
              <mxPoint x="682" y="435" />
            </Array>
          </mxGeometry>
        </mxCell>
      </root>
    </mxGraphModel>
  </diagram>
</mxfile>
